<?xml version="1.0" encoding="UTF-8" standalone="no" ?>
<!DOCTYPE svg PUBLIC "-//W3C//DTD SVG 1.1//EN" "http://www.w3.org/Graphics/SVG/1.1/DTD/svg11.dtd">
<svg xmlns="http://www.w3.org/2000/svg" xmlns:xlink="http://www.w3.org/1999/xlink" version="1.1" width="1080" height="1080" viewBox="0 0 1080 1080" xml:space="preserve">
<desc>Created with Fabric.js 5.2.4</desc>
<defs>
</defs>
<g transform="matrix(1 0 0 1 540 540)" id="a172711e-61b0-4506-9d0a-38718e680863"  >
<rect style="stroke: none; stroke-width: 1; stroke-dasharray: none; stroke-linecap: butt; stroke-dashoffset: 0; stroke-linejoin: miter; stroke-miterlimit: 4; fill: rgb(255,255,255); fill-rule: nonzero; opacity: 1; visibility: hidden;" vector-effect="non-scaling-stroke"  x="-540" y="-540" rx="0" ry="0" width="1080" height="1080" />
</g>
<g transform="matrix(1 0 0 1 540 540)" id="771d7c1a-d82e-48a1-a493-8e05f49cf4af"  >
</g>
<g transform="matrix(NaN NaN NaN NaN 0 0)"  >
<g style=""   >
</g>
</g>
<g transform="matrix(1 0 0 1 540 529.37)"  >
<path style="stroke: none; stroke-width: 1; stroke-dasharray: none; stroke-linecap: butt; stroke-dashoffset: 0; stroke-linejoin: miter; stroke-miterlimit: 4; fill: rgb(51,81,52); fill-rule: nonzero; opacity: 1;" vector-effect="non-scaling-stroke"  transform=" translate(-45.17, -45.17)" d="M 45.18 0 C 20.27 0 0 20.27 0 45.17 C 0 70.07000000000001 20.27 90.34 45.18 90.34 C 70.09 90.34 90.35 70.07000000000001 90.35 45.17 C 90.35 20.269999999999996 70.08 0 45.18 0 Z M 45.18 87.35 C 21.919999999999998 87.35 3 68.42999999999999 3 45.17999999999999 C 3 21.929999999999993 21.92 3 45.18 3 C 68.44 3 87.35 21.92 87.35 45.17 C 87.35 68.42 68.42999999999999 87.34 45.17999999999999 87.34 Z" stroke-linecap="round" />
</g>
<g transform="matrix(1 0 0 1 540 529.37)"  >
<path style="stroke: none; stroke-width: 1; stroke-dasharray: none; stroke-linecap: butt; stroke-dashoffset: 0; stroke-linejoin: miter; stroke-miterlimit: 4; fill: rgb(51,81,52); fill-rule: nonzero; opacity: 1;" vector-effect="non-scaling-stroke"  transform=" translate(-45.18, -45.17)" d="M 82.61 43.67 L 7.74 43.67 C 6.91 43.67 6.24 44.34 6.24 45.17 C 6.24 46 6.91 46.67 7.74 46.67 L 82.61 46.67 C 83.44 46.67 84.11 46 84.11 45.17 C 84.11 44.34 83.44 43.67 82.61 43.67 Z" stroke-linecap="round" />
</g>
<g transform="matrix(1 0 0 1 509.58 538.29)"  >
<path style="stroke: none; stroke-width: 1; stroke-dasharray: none; stroke-linecap: butt; stroke-dashoffset: 0; stroke-linejoin: miter; stroke-miterlimit: 4; fill: rgb(51,81,52); fill-rule: nonzero; opacity: 1;" vector-effect="non-scaling-stroke"  transform=" translate(-14.76, -54.09)" d="M 17.53 52.94 C 17.46 52.76 17.36 52.589999999999996 17.25 52.419999999999995 C 17.15 52.26 17.02 52.10999999999999 16.88 51.96999999999999 C 16.189999999999998 51.26999999999999 15.149999999999999 50.94999999999999 14.169999999999998 51.14999999999999 C 13.979999999999999 51.18999999999999 13.789999999999997 51.239999999999995 13.609999999999998 51.31999999999999 C 13.429999999999998 51.38999999999999 13.259999999999998 51.489999999999995 13.099999999999998 51.589999999999996 C 12.929999999999998 51.699999999999996 12.779999999999998 51.83 12.639999999999997 51.97 C 12.499999999999996 52.11 12.379999999999997 52.26 12.269999999999998 52.42 C 12.159999999999998 52.59 12.069999999999999 52.760000000000005 11.989999999999998 52.940000000000005 C 11.919999999999998 53.120000000000005 11.859999999999998 53.31 11.819999999999999 53.50000000000001 C 11.78 53.70000000000001 11.759999999999998 53.89000000000001 11.759999999999998 54.09000000000001 C 11.759999999999998 54.29000000000001 11.779999999999998 54.48000000000001 11.819999999999999 54.67000000000001 C 11.859999999999998 54.87000000000001 11.919999999999998 55.05000000000001 11.989999999999998 55.24000000000001 C 12.069999999999999 55.42000000000001 12.159999999999998 55.59000000000001 12.269999999999998 55.75000000000001 C 12.379999999999997 55.92000000000001 12.499999999999998 56.07000000000001 12.639999999999997 56.21000000000001 C 12.779999999999998 56.35000000000001 12.929999999999996 56.470000000000006 13.099999999999998 56.580000000000005 C 13.259999999999998 56.690000000000005 13.429999999999998 56.78000000000001 13.609999999999998 56.86000000000001 C 13.789999999999997 56.93000000000001 13.979999999999997 56.99000000000001 14.169999999999998 57.03000000000001 C 14.369999999999997 57.07000000000001 14.569999999999999 57.09000000000001 14.759999999999998 57.09000000000001 C 14.959999999999997 57.09000000000001 15.149999999999999 57.07000000000001 15.349999999999998 57.03000000000001 C 15.539999999999997 56.99000000000001 15.729999999999999 56.93000000000001 15.909999999999998 56.86000000000001 C 16.09 56.78000000000001 16.259999999999998 56.690000000000005 16.43 56.580000000000005 C 16.59 56.470000000000006 16.74 56.35000000000001 16.88 56.21000000000001 C 17.02 56.07000000000001 17.15 55.92000000000001 17.25 55.75000000000001 C 17.36 55.59000000000001 17.46 55.42000000000001 17.53 55.24000000000001 C 17.61 55.05000000000001 17.66 54.87000000000001 17.700000000000003 54.67000000000001 C 17.740000000000002 54.48000000000001 17.76 54.28000000000001 17.76 54.09000000000001 C 17.76 53.89000000000001 17.740000000000002 53.70000000000001 17.700000000000003 53.50000000000001 C 17.660000000000004 53.31000000000001 17.610000000000003 53.120000000000005 17.53 52.940000000000005 Z" stroke-linecap="round" />
</g>
<g transform="matrix(1 0 0 1 519.27 550.37)"  >
<path style="stroke: none; stroke-width: 1; stroke-dasharray: none; stroke-linecap: butt; stroke-dashoffset: 0; stroke-linejoin: miter; stroke-miterlimit: 4; fill: rgb(51,81,52); fill-rule: nonzero; opacity: 1;" vector-effect="non-scaling-stroke"  transform=" translate(-24.45, -66.17)" d="M 22.33 64.03 C 22.189999999999998 64.17 22.069999999999997 64.33 21.959999999999997 64.49 C 21.849999999999998 64.64999999999999 21.759999999999998 64.83 21.679999999999996 65.00999999999999 C 21.609999999999996 65.19 21.549999999999997 65.38 21.509999999999994 65.57 C 21.469999999999995 65.75999999999999 21.449999999999996 65.96 21.449999999999996 66.16 C 21.449999999999996 66.95 21.769999999999996 67.72 22.329999999999995 68.28 C 22.889999999999993 68.83 23.659999999999997 69.15 24.449999999999996 69.15 C 25.239999999999995 69.15 26.019999999999996 68.83000000000001 26.569999999999997 68.28 C 27.119999999999997 67.72999999999999 27.449999999999996 66.94 27.449999999999996 66.16 C 27.449999999999996 65.38 27.129999999999995 64.59 26.569999999999997 64.03 C 25.449999999999996 62.92 23.449999999999996 62.92 22.33 64.03 Z" stroke-linecap="round" />
</g>
<g transform="matrix(1 0 0 1 530.2 538.29)"  >
<path style="stroke: none; stroke-width: 1; stroke-dasharray: none; stroke-linecap: butt; stroke-dashoffset: 0; stroke-linejoin: miter; stroke-miterlimit: 4; fill: rgb(51,81,52); fill-rule: nonzero; opacity: 1;" vector-effect="non-scaling-stroke"  transform=" translate(-35.37, -54.09)" d="M 34.79 51.15 C 34.589999999999996 51.19 34.41 51.24 34.22 51.32 C 34.04 51.39 33.87 51.49 33.71 51.59 C 33.54 51.7 33.39 51.830000000000005 33.25 51.970000000000006 C 32.69 52.52 32.37 53.300000000000004 32.37 54.09 C 32.37 54.28 32.39 54.480000000000004 32.43 54.67 C 32.47 54.870000000000005 32.53 55.050000000000004 32.6 55.24 C 32.68 55.42 32.77 55.59 32.88 55.75 C 32.99 55.92 33.11 56.07 33.25 56.21 C 33.39 56.35 33.54 56.47 33.71 56.58 C 33.87 56.69 34.04 56.78 34.22 56.86 C 34.41 56.93 34.589999999999996 56.99 34.79 57.03 C 34.98 57.07 35.18 57.09 35.37 57.09 C 36.16 57.09 36.93 56.77 37.489999999999995 56.21 C 37.629999999999995 56.07 37.76 55.92 37.87 55.75 C 37.97 55.59 38.07 55.42 38.14 55.24 C 38.22 55.050000000000004 38.27 54.870000000000005 38.31 54.67 C 38.35 54.480000000000004 38.370000000000005 54.28 38.370000000000005 54.09 C 38.370000000000005 53.300000000000004 38.050000000000004 52.52 37.49 51.970000000000006 C 36.800000000000004 51.27 35.760000000000005 50.95 34.79 51.150000000000006 Z" stroke-linecap="round" />
</g>
<g transform="matrix(1 0 0 1 539.55 550.35)"  >
<path style="stroke: none; stroke-width: 1; stroke-dasharray: none; stroke-linecap: butt; stroke-dashoffset: 0; stroke-linejoin: miter; stroke-miterlimit: 4; fill: rgb(51,81,52); fill-rule: nonzero; opacity: 1;" vector-effect="non-scaling-stroke"  transform=" translate(-44.73, -66.15)" d="M 47.5 65.01 C 47.43 64.83 47.33 64.65 47.23 64.49000000000001 C 47.12 64.33000000000001 46.989999999999995 64.17000000000002 46.849999999999994 64.03000000000002 C 46.16 63.34000000000002 45.12 63.02000000000002 44.13999999999999 63.210000000000015 C 43.949999999999996 63.250000000000014 43.75999999999999 63.31000000000002 43.57999999999999 63.390000000000015 C 43.39999999999999 63.460000000000015 43.22999999999999 63.55000000000001 43.06999999999999 63.66000000000002 C 42.89999999999999 63.77000000000002 42.74999999999999 63.90000000000002 42.60999999999999 64.03000000000002 C 42.46999999999999 64.17000000000002 42.349999999999994 64.33000000000001 42.239999999999995 64.49000000000001 C 42.129999999999995 64.65 42.03999999999999 64.83000000000001 41.959999999999994 65.01 C 41.88999999999999 65.19000000000001 41.82999999999999 65.38000000000001 41.78999999999999 65.57000000000001 C 41.74999999999999 65.76 41.72999999999999 65.96000000000001 41.72999999999999 66.16000000000001 C 41.72999999999999 66.94000000000001 42.04999999999999 67.72000000000001 42.60999999999999 68.28000000000002 C 42.74999999999999 68.41000000000001 42.89999999999999 68.54000000000002 43.06999999999999 68.65000000000002 C 43.22999999999999 68.76000000000002 43.39999999999999 68.85000000000002 43.57999999999999 68.92000000000002 C 43.75999999999999 69.00000000000001 43.94999999999999 69.06000000000002 44.13999999999999 69.10000000000002 C 44.339999999999996 69.13000000000002 44.53999999999999 69.15000000000002 44.73 69.15000000000002 C 45.519999999999996 69.15000000000002 46.29 68.83000000000003 46.849999999999994 68.28000000000002 C 47.41 67.72000000000001 47.73 66.95000000000002 47.73 66.16000000000001 C 47.73 65.96000000000001 47.709999999999994 65.76 47.669999999999995 65.57000000000001 C 47.629999999999995 65.38000000000001 47.57999999999999 65.19000000000001 47.49999999999999 65.01 Z" stroke-linecap="round" />
</g>
<g transform="matrix(1 0 0 1 550.48 538.29)"  >
<path style="stroke: none; stroke-width: 1; stroke-dasharray: none; stroke-linecap: butt; stroke-dashoffset: 0; stroke-linejoin: miter; stroke-miterlimit: 4; fill: rgb(51,81,52); fill-rule: nonzero; opacity: 1;" vector-effect="non-scaling-stroke"  transform=" translate(-55.65, -54.09)" d="M 58.42 52.94 C 58.34 52.76 58.25 52.589999999999996 58.14 52.419999999999995 C 58.03 52.26 57.910000000000004 52.10999999999999 57.77 51.96999999999999 C 57.080000000000005 51.26999999999999 56.040000000000006 50.94999999999999 55.06 51.14999999999999 C 54.870000000000005 51.18999999999999 54.68 51.239999999999995 54.5 51.31999999999999 C 54.32 51.38999999999999 54.15 51.489999999999995 53.98 51.589999999999996 C 53.82 51.699999999999996 53.669999999999995 51.83 53.529999999999994 51.97 C 53.38999999999999 52.11 53.25999999999999 52.26 53.16 52.42 C 53.05 52.59 52.949999999999996 52.760000000000005 52.879999999999995 52.940000000000005 C 52.8 53.120000000000005 52.74999999999999 53.31 52.709999999999994 53.50000000000001 C 52.669999999999995 53.70000000000001 52.64999999999999 53.89000000000001 52.64999999999999 54.09000000000001 C 52.64999999999999 54.29000000000001 52.669999999999995 54.48000000000001 52.709999999999994 54.67000000000001 C 52.74999999999999 54.87000000000001 52.8 55.05000000000001 52.879999999999995 55.24000000000001 C 52.949999999999996 55.42000000000001 53.05 55.59000000000001 53.16 55.75000000000001 C 53.26 55.92000000000001 53.38999999999999 56.07000000000001 53.529999999999994 56.21000000000001 C 53.669999999999995 56.35000000000001 53.81999999999999 56.470000000000006 53.98 56.580000000000005 C 54.15 56.690000000000005 54.32 56.78000000000001 54.5 56.86000000000001 C 54.68 56.93000000000001 54.87 56.99000000000001 55.06 57.03000000000001 C 55.260000000000005 57.07000000000001 55.45 57.09000000000001 55.650000000000006 57.09000000000001 C 55.85000000000001 57.09000000000001 56.040000000000006 57.07000000000001 56.24000000000001 57.03000000000001 C 56.43000000000001 56.99000000000001 56.62000000000001 56.93000000000001 56.80000000000001 56.86000000000001 C 56.98000000000001 56.78000000000001 57.15000000000001 56.690000000000005 57.320000000000014 56.580000000000005 C 57.48000000000001 56.470000000000006 57.63000000000002 56.35000000000001 57.77000000000002 56.21000000000001 C 57.91000000000002 56.07000000000001 58.030000000000015 55.92000000000001 58.140000000000015 55.75000000000001 C 58.250000000000014 55.59000000000001 58.34000000000002 55.42000000000001 58.420000000000016 55.24000000000001 C 58.490000000000016 55.05000000000001 58.55000000000002 54.87000000000001 58.59000000000002 54.67000000000001 C 58.63000000000002 54.48000000000001 58.65000000000002 54.28000000000001 58.65000000000002 54.09000000000001 C 58.65000000000002 53.89000000000001 58.63000000000002 53.70000000000001 58.59000000000002 53.50000000000001 C 58.55000000000002 53.31000000000001 58.490000000000016 53.120000000000005 58.420000000000016 52.940000000000005 Z" stroke-linecap="round" />
</g>
<g transform="matrix(1 0 0 1 559.84 550.35)"  >
<path style="stroke: none; stroke-width: 1; stroke-dasharray: none; stroke-linecap: butt; stroke-dashoffset: 0; stroke-linejoin: miter; stroke-miterlimit: 4; fill: rgb(51,81,52); fill-rule: nonzero; opacity: 1;" vector-effect="non-scaling-stroke"  transform=" translate(-65.01, -66.15)" d="M 64.42 63.21 C 64.23 63.25 64.04 63.31 63.86 63.39 C 63.68 63.46 63.51 63.55 63.339999999999996 63.660000000000004 C 63.18 63.77 63.029999999999994 63.900000000000006 62.88999999999999 64.03 C 62.32999999999999 64.59 62.00999999999999 65.37 62.00999999999999 66.16 C 62.00999999999999 66.94999999999999 62.32999999999999 67.72 62.88999999999999 68.28 C 63.029999999999994 68.41 63.17999999999999 68.54 63.339999999999996 68.65 C 63.51 68.76 63.68 68.85000000000001 63.86 68.92 C 64.04 69 64.23 69.06 64.42 69.10000000000001 C 64.62 69.13000000000001 64.81 69.15 65.01 69.15 C 65.80000000000001 69.15 66.57000000000001 68.83000000000001 67.13000000000001 68.28 C 67.69000000000001 67.72 68.01 66.94 68.01 66.16 C 68.01 65.38 67.69000000000001 64.59 67.13000000000001 64.03 C 66.43 63.34 65.4 63.02 64.42000000000002 63.21 Z" stroke-linecap="round" />
</g>
<g transform="matrix(1 0 0 1 569.52 538.29)"  >
<path style="stroke: none; stroke-width: 1; stroke-dasharray: none; stroke-linecap: butt; stroke-dashoffset: 0; stroke-linejoin: miter; stroke-miterlimit: 4; fill: rgb(51,81,52); fill-rule: nonzero; opacity: 1;" vector-effect="non-scaling-stroke"  transform=" translate(-74.7, -54.09)" d="M 76.37 51.59 C 76.2 51.49 76.03 51.39 75.85000000000001 51.32 C 75.67 51.24 75.48 51.19 75.29 51.15 C 74.31 50.949999999999996 73.28 51.269999999999996 72.58000000000001 51.97 C 72.02000000000001 52.519999999999996 71.70000000000002 53.3 71.70000000000002 54.089999999999996 C 71.70000000000002 54.279999999999994 71.72000000000001 54.48 71.76000000000002 54.669999999999995 C 71.80000000000003 54.87 71.86000000000001 55.05 71.93000000000002 55.239999999999995 C 72.01000000000002 55.419999999999995 72.10000000000002 55.589999999999996 72.21000000000002 55.74999999999999 C 72.32000000000002 55.919999999999995 72.44000000000003 56.06999999999999 72.58000000000003 56.209999999999994 C 73.14000000000003 56.769999999999996 73.91000000000003 57.089999999999996 74.70000000000003 57.089999999999996 C 74.90000000000003 57.089999999999996 75.09000000000003 57.06999999999999 75.29000000000003 57.029999999999994 C 75.48000000000003 56.989999999999995 75.67000000000003 56.92999999999999 75.85000000000004 56.85999999999999 C 76.03000000000004 56.779999999999994 76.20000000000003 56.68999999999999 76.37000000000003 56.57999999999999 C 76.53000000000003 56.46999999999999 76.68000000000004 56.349999999999994 76.82000000000004 56.209999999999994 C 76.96000000000004 56.06999999999999 77.09000000000003 55.919999999999995 77.20000000000003 55.74999999999999 C 77.30000000000003 55.589999999999996 77.40000000000003 55.419999999999995 77.47000000000003 55.239999999999995 C 77.55000000000003 55.05 77.60000000000002 54.87 77.64000000000003 54.669999999999995 C 77.68000000000004 54.48 77.70000000000003 54.279999999999994 77.70000000000003 54.089999999999996 C 77.70000000000003 53.3 77.38000000000004 52.519999999999996 76.82000000000004 51.97 C 76.68000000000004 51.83 76.53000000000003 51.699999999999996 76.37000000000003 51.589999999999996 Z" stroke-linecap="round" />
</g>
<g transform="matrix(1 0 0 1 530.19 561.29)"  >
<path style="stroke: none; stroke-width: 1; stroke-dasharray: none; stroke-linecap: butt; stroke-dashoffset: 0; stroke-linejoin: miter; stroke-miterlimit: 4; fill: rgb(51,81,52); fill-rule: nonzero; opacity: 1;" vector-effect="non-scaling-stroke"  transform=" translate(-35.37, -77.09)" d="M 38.14 75.93 C 38.07 75.75 37.97 75.57000000000001 37.87 75.41000000000001 C 37.76 75.24000000000001 37.629999999999995 75.09000000000002 37.489999999999995 74.95000000000002 C 36.379999999999995 73.84000000000002 34.37 73.84000000000002 33.24999999999999 74.95000000000002 C 33.10999999999999 75.09000000000002 32.989999999999995 75.24000000000002 32.879999999999995 75.41000000000001 C 32.769999999999996 75.57000000000001 32.67999999999999 75.75000000000001 32.599999999999994 75.93 C 32.529999999999994 76.11000000000001 32.46999999999999 76.30000000000001 32.42999999999999 76.49000000000001 C 32.38999999999999 76.68 32.36999999999999 76.88000000000001 32.36999999999999 77.07000000000001 C 32.36999999999999 77.27000000000001 32.38999999999999 77.47000000000001 32.42999999999999 77.66000000000001 C 32.46999999999999 77.85000000000001 32.529999999999994 78.04 32.599999999999994 78.22000000000001 C 32.67999999999999 78.40000000000002 32.769999999999996 78.58000000000001 32.879999999999995 78.74000000000001 C 32.989999999999995 78.9 33.10999999999999 79.06 33.24999999999999 79.2 C 33.809999999999995 79.75 34.57999999999999 80.07000000000001 35.36999999999999 80.07000000000001 C 36.15999999999999 80.07000000000001 36.92999999999999 79.75000000000001 37.48999999999999 79.2 C 37.62999999999999 79.06 37.75999999999999 78.9 37.86999999999999 78.74000000000001 C 37.96999999999999 78.58000000000001 38.06999999999999 78.4 38.13999999999999 78.22000000000001 C 38.21999999999999 78.04 38.269999999999996 77.85000000000001 38.309999999999995 77.66000000000001 C 38.349999999999994 77.47000000000001 38.37 77.27000000000001 38.37 77.07000000000001 C 38.37 76.87 38.349999999999994 76.68 38.309999999999995 76.49000000000001 C 38.269999999999996 76.30000000000001 38.21999999999999 76.11000000000001 38.13999999999999 75.93 Z" stroke-linecap="round" />
</g>
<g transform="matrix(1 0 0 1 550.48 561.27)"  >
<path style="stroke: none; stroke-width: 1; stroke-dasharray: none; stroke-linecap: butt; stroke-dashoffset: 0; stroke-linejoin: miter; stroke-miterlimit: 4; fill: rgb(51,81,52); fill-rule: nonzero; opacity: 1;" vector-effect="non-scaling-stroke"  transform=" translate(-55.65, -77.07)" d="M 58.42 75.93 C 58.34 75.75 58.25 75.57000000000001 58.14 75.41000000000001 C 58.03 75.24000000000001 57.910000000000004 75.09000000000002 57.77 74.95000000000002 C 57.63 74.81000000000002 57.480000000000004 74.69000000000001 57.31 74.58000000000001 C 57.150000000000006 74.47000000000001 56.980000000000004 74.38000000000001 56.800000000000004 74.30000000000001 C 56.620000000000005 74.23000000000002 56.43000000000001 74.17000000000002 56.24 74.13000000000001 C 55.85 74.06000000000002 55.45 74.06000000000002 55.06 74.13000000000001 C 54.870000000000005 74.17000000000002 54.68 74.23 54.5 74.30000000000001 C 54.32 74.38000000000001 54.15 74.47000000000001 53.98 74.58000000000001 C 53.82 74.69000000000001 53.669999999999995 74.81000000000002 53.529999999999994 74.95000000000002 C 53.38999999999999 75.09000000000002 53.25999999999999 75.24000000000002 53.16 75.41000000000001 C 53.05 75.57000000000001 52.949999999999996 75.75000000000001 52.879999999999995 75.93 C 52.809999999999995 76.11000000000001 52.74999999999999 76.30000000000001 52.709999999999994 76.49000000000001 C 52.669999999999995 76.68 52.64999999999999 76.88000000000001 52.64999999999999 77.07000000000001 C 52.64999999999999 77.27000000000001 52.669999999999995 77.47000000000001 52.709999999999994 77.66000000000001 C 52.74999999999999 77.85000000000001 52.809999999999995 78.04 52.879999999999995 78.22000000000001 C 52.949999999999996 78.40000000000002 53.05 78.58000000000001 53.16 78.74000000000001 C 53.26 78.9 53.38999999999999 79.06 53.529999999999994 79.2 C 53.669999999999995 79.33 53.81999999999999 79.46000000000001 53.98 79.57000000000001 C 54.15 79.68 54.32 79.77000000000001 54.5 79.84 C 54.68 79.92 54.87 79.98 55.06 80.01 C 55.260000000000005 80.05000000000001 55.45 80.07000000000001 55.650000000000006 80.07000000000001 C 55.85000000000001 80.07000000000001 56.040000000000006 80.05000000000001 56.24000000000001 80.01 C 56.43000000000001 79.98 56.62000000000001 79.92 56.80000000000001 79.84 C 56.98000000000001 79.77000000000001 57.15000000000001 79.68 57.31000000000001 79.57000000000001 C 57.48000000000001 79.46000000000001 57.63000000000001 79.33000000000001 57.77000000000001 79.2 C 58.33000000000001 78.64 58.65000000000001 77.86 58.65000000000001 77.07000000000001 C 58.65000000000001 76.88000000000001 58.63000000000001 76.68 58.59000000000001 76.49000000000001 C 58.55000000000001 76.30000000000001 58.49000000000001 76.11000000000001 58.42000000000001 75.93 Z" stroke-linecap="round" />
</g>
</svg>